<svg xmlns="http://www.w3.org/2000/svg" viewBox="0 0 512 512"><title>Roundtrip</title><g id="Roundtrip"><g id="Roundtrip-2" data-name="Roundtrip"><path d="M179.4917,174.0986l-5.1509-19.2755a288.9905,288.9905,0,0,0-32.9441,10.9763l7.4347,18.5136A269.1236,269.1236,0,0,1,179.4917,174.0986Z"/><path d="M119.6151,198.1412l-9.6-17.4895a291.0561,291.0561,0,0,0-29.3863,18.5136l11.6308,16.21A271.15,271.15,0,0,1,119.6151,198.1412Z"/><path d="M29.5437,246.0782,44.71,259.0391a268.1309,268.1309,0,0,1,22.457-23.2617l-13.49-14.6965A287.9534,287.9534,0,0,0,29.5437,246.0782Z"/><path d="M460.1312,238.0478l-14.69,13.4967a270.6734,270.6734,0,0,1,20.406,25.0866L482.0563,265A289.7174,289.7174,0,0,0,460.1312,238.0478Z"/><path d="M396.3511,209.6229a267.9926,267.9926,0,0,1,25.8153,19.4712l12.9542-15.1724A286.3032,286.3032,0,0,0,407.37,192.9941Z"/><path d="M377.2789,175.5844a288.6808,288.6808,0,0,0-31.9561-13.6192l-6.6966,18.7929a267.5218,267.5218,0,0,1,29.735,12.672Z"/><path d="M196.8444,189.0345l13.5594.0066L221.7059,171.9l21.7617.15L229.7657,219.292v1.1172a10.8353,10.8353,0,0,0,10.82,10.8224h19.6574L291.4378,173.38l24.1091.798c12.4792,0,22.6338-9.7926,22.6338-21.8225a21.26,21.26,0,0,0-6.783-15.5875,23.0984,23.0984,0,0,0-16.0864-6.2339h-.0171l-24.0625.8046-30.9824-57.456-19.6906-.0066a10.8434,10.8434,0,0,0-10.793,10.8261V85.816l13.5926,46.8664-21.8557.189-11.1055-16.8007-13.5489.0029a10.1007,10.1007,0,0,0-10.0918,10.088v52.7877A10.0944,10.0944,0,0,0,196.8444,189.0345Zm5.61-56.5155,10.66,16.1262,51.0986-.4417L247.2049,89.5771h3.6708l31.159,57.778,33.5227-1.12a7.3252,7.3252,0,0,1,5.0578,1.9446,5.7248,5.7248,0,0,1,1.8677,4.1734c0,3.3811-3.1113,6.1275-6.6728,6.1313l-33.5692-1.1106-31.3681,58.1609h-3.6707L264.322,156.5l-51.0283-.3562L202.4476,172.58V132.519Z"/><path d="M287.9361,265.9845A178.8836,178.8836,0,0,0,248.2527,261.5c-83.5078,0-154.8091,56.9505-173.3854,138.4891a178.5535,178.5535,0,0,0-4.4394,38.1348H90.3817a158.9638,158.9638,0,0,1,2.0511-23.86c11.2185,2.8756,22.7763,7.4907,26.4908,10.52-.173,1.2873-.3725,2.59-.5758,3.9036-.4484,2.91-.9338,6.1284-1.1333,9.4363H137.231c.209-2.261.5652-4.6454.8341-6.3973.3695-2.4044.7353-4.7984.9642-7.1126,1.2408-12.5286-12.9675-22.5464-42.1742-29.8043A156.9536,156.9536,0,0,1,210.2242,286.0447a61.6089,61.6089,0,0,0-6.3574,21.8253c-.4854,4.4023-1.1172,8.379-1.672,11.8807-2.2344,14.118-4.5457,28.7176,14.5464,37.2162a71.3791,71.3791,0,0,0,24.2136,6.2016,55.508,55.508,0,0,1,8.246,1.28c.9671,3.2423.4788,11.1625.2822,14.3279-.2489,4.0194-.5016,8.1225.7248,11.4741a104.0466,104.0466,0,0,0,23.086,47.8667h30.0209c-28.861-18.8423-33.459-51.0549-33.649-52.4713l-.4085-3.2852c.04-.778.0894-1.6292.1359-2.3578.6422-10.3836,1.8392-29.7218-12.9637-34.2437a67.4019,67.4019,0,0,0-13.3874-2.4273c-5.5584-.5852-10.3569-1.0906-18.1773-4.579-5.1176-2.281-5.1176-2.281-2.9659-15.88.589-3.72,1.2568-7.9429,1.7926-12.8108A47.8968,47.8968,0,0,1,236.23,281.9189c3.9738-.2964,7.98-.476,12.0231-.476a159.0522,159.0522,0,0,1,35.2545,3.9833A158.1418,158.1418,0,0,1,406.423,434.7292c-1.66,1.0868-3.724,2.2344-5.9451,3.3877h25.9046A177.9149,177.9149,0,0,0,287.9361,265.9845Z"/></g></g></svg>